<svg width="479" height="86" viewBox="0 0 479 86" fill="none" xmlns="http://www.w3.org/2000/svg">
<g filter="url(#filter0_d_301_647)">
<path d="M55.8438 7.09375L53.2188 26.875C52.3125 26.625 51.4062 26.4531 50.5 26.3594C49.5938 26.2656 48.6875 26.2188 47.7812 26.2188C45.4688 26.2188 43.2656 26.5312 41.1719 27.1562C39.0781 27.75 37.2188 28.6719 35.5938 29.9219C34 31.1719 32.7188 32.7344 31.75 34.6094C30.8125 36.4844 30.3438 38.6875 30.3438 41.2188C30.3438 42.8438 30.5938 44.25 31.0938 45.4375C31.625 46.625 32.3594 47.6094 33.2969 48.3906C34.2344 49.1719 35.3438 49.75 36.625 50.125C37.9062 50.5 39.3125 50.6875 40.8438 50.6875C42 50.6875 43.2031 50.5625 44.4531 50.3125C45.7031 50.0625 46.9375 49.7344 48.1562 49.3281C49.375 48.9219 50.5625 48.4531 51.7188 47.9219C52.875 47.3906 53.9375 46.8438 54.9062 46.2812L53.0312 68.3125C51.8125 68.9375 50.4844 69.5 49.0469 70C47.6406 70.4688 46.1875 70.8906 44.6875 71.2656C43.1875 71.6094 41.6875 71.875 40.1875 72.0625C38.6875 72.25 37.25 72.3438 35.875 72.3438C31.9062 72.3438 28.2031 71.6094 24.7656 70.1406C21.3281 68.6719 18.3438 66.6562 15.8125 64.0938C13.2812 61.5312 11.2812 58.5156 9.8125 55.0469C8.375 51.5469 7.65625 47.7812 7.65625 43.75C7.65625 38.4062 8.42188 33.375 9.95312 28.6562C11.4844 23.9063 13.7344 19.75 16.7031 16.1875C19.6719 12.625 23.3438 9.8125 27.7188 7.75C32.125 5.6875 37.1875 4.65625 42.9062 4.65625C45.0625 4.65625 47.2656 4.82812 49.5156 5.17188C51.7969 5.51562 53.9062 6.15625 55.8438 7.09375ZM83.2656 7L79.9844 70.8438L60.2031 71.875L58.3281 8.3125L83.2656 7ZM136.75 6.90625L136.281 26.7812L122.312 27.3438L120.625 70.8438L100.844 71.875L99.0625 28.375L85.0938 29.125L85.6562 7L136.75 6.90625ZM197.219 9.53125L175.188 45.5312L175.844 72.0625H151.75L152.312 45.7188L135.156 10.9375L159.062 7.9375L166.562 28.1875L174.719 7.9375L197.219 9.53125Z" fill="#EFEFEF"/>
<path d="M272.875 63.4375C271.406 65.2812 269.594 66.8906 267.438 68.2656C265.281 69.6406 262.969 70.7812 260.5 71.6875C258.031 72.5938 255.5 73.2656 252.906 73.7031C250.312 74.1719 247.844 74.4062 245.5 74.4062C240.969 74.4062 236.797 73.5938 232.984 71.9688C229.172 70.3438 225.875 68.1094 223.094 65.2656C220.344 62.3906 218.188 59.0156 216.625 55.1406C215.062 51.2656 214.281 47.0938 214.281 42.625C214.281 39.2188 214.672 35.8906 215.453 32.6406C216.234 29.3594 217.344 26.2812 218.781 23.4062C220.25 20.5 222.031 17.8437 224.125 15.4375C226.219 13 228.594 10.9062 231.25 9.15625C233.906 7.40625 236.812 6.04688 239.969 5.07812C243.125 4.10938 246.5 3.625 250.094 3.625C251.438 3.625 252.875 3.6875 254.406 3.8125C255.938 3.90625 257.453 4.09375 258.953 4.375C260.484 4.625 261.969 4.98438 263.406 5.45312C264.844 5.92188 266.156 6.5 267.344 7.1875L266.031 25.0938C264.281 24.4375 262.469 24 260.594 23.7812C258.75 23.5313 256.938 23.4062 255.156 23.4062C252.656 23.4062 250.312 23.7969 248.125 24.5781C245.969 25.3281 244.078 26.4219 242.453 27.8594C240.859 29.2969 239.594 31.0469 238.656 33.1094C237.719 35.1719 237.25 37.5 237.25 40.0938C237.25 41.7188 237.469 43.2969 237.906 44.8281C238.344 46.3281 239 47.6719 239.875 48.8594C240.781 50.0156 241.891 50.9531 243.203 51.6719C244.547 52.3906 246.094 52.75 247.844 52.75C249.031 52.75 250.25 52.5938 251.5 52.2812C252.781 51.9688 253.875 51.4375 254.781 50.6875L254.969 47.0312L243.719 46.8438L244.281 32.7812C248.938 32.625 253.594 32.5 258.25 32.4062C262.906 32.2812 267.594 32.125 272.312 31.9375L272.875 63.4375ZM332.359 7C330.953 18 329.75 28.9531 328.75 39.8594C327.75 50.7344 326.797 61.6875 325.891 72.7188L306.672 74.125L307.516 66.9062C306.891 67.625 306.156 68.25 305.312 68.7812C304.5 69.3125 303.625 69.75 302.688 70.0938C301.75 70.4062 300.781 70.6406 299.781 70.7969C298.781 70.9219 297.828 70.9688 296.922 70.9375C294.797 70.9062 292.797 70.5 290.922 69.7188C289.047 68.9062 287.328 67.8438 285.766 66.5312C284.203 65.1875 282.797 63.6406 281.547 61.8906C280.297 60.1094 279.234 58.25 278.359 56.3125C277.516 54.3438 276.859 52.3438 276.391 50.3125C275.953 48.2812 275.734 46.3125 275.734 44.4062C275.734 41.5938 275.781 38.6875 275.875 35.6875C276 32.6562 276.203 29.625 276.484 26.5938C276.766 23.5625 277.125 20.5625 277.562 17.5938C278.031 14.625 278.609 11.7812 279.297 9.0625C283.109 9.25 286.938 9.42188 290.781 9.57812C294.625 9.73438 298.453 9.78125 302.266 9.71875C301.547 12.4375 300.828 15.1719 300.109 17.9219C299.422 20.6406 298.797 23.3906 298.234 26.1719C297.672 28.9219 297.219 31.6875 296.875 34.4688C296.531 37.25 296.359 40.0625 296.359 42.9062C296.359 43.5625 296.391 44.5 296.453 45.7188C296.516 46.9375 296.672 48.1406 296.922 49.3281C297.203 50.5156 297.609 51.5625 298.141 52.4688C298.703 53.3438 299.484 53.7812 300.484 53.7812C301.672 53.7812 302.734 53.2812 303.672 52.2812C304.609 51.25 305.438 49.875 306.156 48.1562C306.875 46.4375 307.484 44.4531 307.984 42.2031C308.516 39.9531 308.953 37.6094 309.297 35.1719C309.672 32.7031 309.969 30.2188 310.188 27.7188C310.406 25.2188 310.562 22.875 310.656 20.6875C310.781 18.4688 310.859 16.4844 310.891 14.7344C310.953 12.9844 310.984 11.625 310.984 10.6562C310.984 10.0312 310.969 9.42188 310.938 8.82812C310.906 8.23438 310.859 7.625 310.797 7C312.828 7.0625 314.844 7.10938 316.844 7.14062C318.844 7.17188 320.859 7.1875 322.891 7.1875C324.453 7.1875 326.016 7.1875 327.578 7.1875C329.172 7.15625 330.766 7.09375 332.359 7ZM359.641 7L356.359 70.8438L336.578 71.875L334.703 8.3125L359.641 7ZM416.594 35.7812C416.594 40.1562 416.031 44.0781 414.906 47.5469C413.781 51.0156 412.203 54.0938 410.172 56.7812C408.172 59.4375 405.781 61.7031 403 63.5781C400.219 65.4531 397.172 67 393.859 68.2188C390.547 69.4062 387.016 70.2812 383.266 70.8438C379.547 71.4062 375.719 71.6875 371.781 71.6875C370.312 71.6875 368.875 71.6562 367.469 71.5938C366.062 71.5 364.625 71.375 363.156 71.2188L364.469 10.1875C367.906 9.09375 371.438 8.32812 375.062 7.89062C378.719 7.42188 382.344 7.1875 385.938 7.1875C390.406 7.1875 394.516 7.8125 398.266 9.0625C402.016 10.3125 405.25 12.1562 407.969 14.5938C410.688 17 412.797 19.9844 414.297 23.5469C415.828 27.0781 416.594 31.1562 416.594 35.7812ZM384.719 53.7812C386.594 53.5 388.297 52.9375 389.828 52.0938C391.391 51.2188 392.734 50.1562 393.859 48.9062C394.984 47.625 395.844 46.1875 396.438 44.5938C397.062 42.9688 397.375 41.25 397.375 39.4375C397.375 37.6562 397.188 36 396.812 34.4688C396.438 32.9062 395.828 31.5625 394.984 30.4375C394.141 29.2812 393.031 28.375 391.656 27.7188C390.281 27.0312 388.594 26.6562 386.594 26.5938L384.719 53.7812ZM471.859 35.125C471.859 37.8438 471.672 40.5625 471.297 43.2812C465.953 43.625 460.641 44.1875 455.359 44.9688C450.078 45.7188 444.797 46.4688 439.516 47.2188C440.328 49.4688 441.594 51.2656 443.312 52.6094C445.062 53.9531 447.141 54.625 449.547 54.625C450.797 54.625 452.156 54.3906 453.625 53.9219C455.125 53.4531 456.609 52.875 458.078 52.1875C459.547 51.4688 460.953 50.7031 462.297 49.8906C463.641 49.0781 464.797 48.3438 465.766 47.6875L463.516 68.9688C462.297 69.9062 460.969 70.7031 459.531 71.3594C458.125 72.0156 456.656 72.5469 455.125 72.9531C453.594 73.3594 452.047 73.6562 450.484 73.8438C448.922 74.0312 447.391 74.125 445.891 74.125C442.797 74.125 439.969 73.7031 437.406 72.8594C434.844 72.0156 432.516 70.8438 430.422 69.3438C428.359 67.8125 426.547 66.0156 424.984 63.9531C423.422 61.8906 422.125 59.6406 421.094 57.2031C420.062 54.7656 419.281 52.1875 418.75 49.4688C418.219 46.75 417.953 44 417.953 41.2188C417.953 38.3125 418.219 35.4062 418.75 32.5C419.281 29.5938 420.078 26.7969 421.141 24.1094C422.234 21.4219 423.594 18.9375 425.219 16.6562C426.875 14.3438 428.797 12.3281 430.984 10.6094C433.172 8.89062 435.641 7.54688 438.391 6.57812C441.172 5.60938 444.234 5.125 447.578 5.125C450.359 5.125 452.891 5.51562 455.172 6.29688C457.484 7.04688 459.531 8.10938 461.312 9.48438C463.125 10.8281 464.688 12.4375 466 14.3125C467.344 16.1875 468.438 18.25 469.281 20.5C470.156 22.7187 470.797 25.0781 471.203 27.5781C471.641 30.0469 471.859 32.5625 471.859 35.125ZM453.109 32.6875C453.109 31.8125 453.016 30.9219 452.828 30.0156C452.641 29.0781 452.328 28.2344 451.891 27.4844C451.484 26.7344 450.938 26.125 450.25 25.6562C449.562 25.1562 448.703 24.9062 447.672 24.9062C446.422 24.9062 445.312 25.25 444.344 25.9375C443.406 26.5938 442.594 27.4375 441.906 28.4688C441.219 29.4688 440.656 30.5625 440.219 31.75C439.781 32.9375 439.453 34.0312 439.234 35.0312L453.109 33.7188V32.6875Z" fill="#44BDBD"/>
</g>
<defs>
<filter id="filter0_d_301_647" x="0.65625" y="0.625" width="478.203" height="84.7812" filterUnits="userSpaceOnUse" color-interpolation-filters="sRGB">
<feFlood flood-opacity="0" result="BackgroundImageFix"/>
<feColorMatrix in="SourceAlpha" type="matrix" values="0 0 0 0 0 0 0 0 0 0 0 0 0 0 0 0 0 0 127 0" result="hardAlpha"/>
<feOffset dy="4"/>
<feGaussianBlur stdDeviation="3.5"/>
<feComposite in2="hardAlpha" operator="out"/>
<feColorMatrix type="matrix" values="0 0 0 0 1 0 0 0 0 0 0 0 0 0 0 0 0 0 0.67 0"/>
<feBlend mode="normal" in2="BackgroundImageFix" result="effect1_dropShadow_301_647"/>
<feBlend mode="normal" in="SourceGraphic" in2="effect1_dropShadow_301_647" result="shape"/>
</filter>
</defs>
</svg>
